{"accessors":[{"bufferView":0,"componentType":5125,"count":69678,"name":"index","type":"SCALAR"},{"bufferView":1,"componentType":5126,"count":14844,"max":[0.804669976234436,0.3370000123977661,0.6941099762916565],"min":[0.054579999297857285,-0.33601999282836914,0.25321000814437866],"name":"position","type":"VEC3"},{"bufferView":1,"byteOffset":12,"componentType":5126,"count":14844,"name":"texture_cooridinate","type":"VEC2"}],"asset":{"version":"2.0"},"bufferViews":[{"buffer":0,"byteLength":278712,"name":"indices"},{"buffer":0,"byteLength":296880,"byteOffset":278712,"byteStride":20,"name":"vertices"},{"buffer":1,"byteLength":339381}],"buffers":[{"byteLength":575592,"name":"geometry","uri":"data:application/octet-stream;base64,"},{"byteLength":339381,"name":"diffuse_texture","uri":"data:application/octet-stream;base64,"}],"extensionsUsed":["KHR_materials_unlit"],"images":[{"bufferView":2,"mimeType":"image/jpeg"}],"materials":[{"extensions":{"KHR_materials_unlit":{}},"name":"material_0","pbrMetallicRoughness":{"baseColorTexture":{"index":0}}}],"meshes":[{"primitives":[{"attributes":{"POSITION":1,"TEXCOORD_0":2},"indices":0,"material":0,"mode":4}]}],"nodes":[{"mesh":0}],"samplers":[{"wrapR":10497,"wrapS":10497,"wrapT":10497}],"scene":0,"scenes":[{"nodes":[0]}],"textures":[{"sampler":0,"source":0}]}
